<svg xmlns="http://www.w3.org/2000/svg" viewBox="0 0 512 512">
  <rect width="512" height="512" rx="96" fill="#2E7D32"/>
  <path d="M256 80c-97.2 0-176 78.8-176 176s78.8 176 176 176 176-78.8 176-176S353.2 80 256 80zm0 320c-79.4 0-144-64.6-144-144s64.6-144 144-144 144 64.6 144 144-64.6 144-144 144z" fill="#fff"/>
  <path d="M256 144c-61.9 0-112 50.1-112 112s50.1 112 112 112 112-50.1 112-112-50.1-112-112-112zm48 120h-40v40c0 4.4-3.6 8-8 8s-8-3.6-8-8v-40h-40c-4.4 0-8-3.6-8-8s3.6-8 8-8h40v-40c0-4.4 3.6-8 8-8s8 3.6 8 8v40h40c4.4 0 8 3.6 8 8s-3.6 8-8 8z" fill="#C8E6C9"/>
  <text x="256" y="340" text-anchor="middle" font-family="Inter, sans-serif" font-weight="700" font-size="64" fill="#fff">A</text>
</svg>
